<mxfile host="app.diagrams.net" modified="2022-06-19T15:27:07.810Z" agent="5.0 (Macintosh; Intel Mac OS X 10_15_7) AppleWebKit/537.36 (KHTML, like Gecko) Chrome/102.0.0.0 Safari/537.36" etag="T4eeOxWmMjD7WlRb5cTT" version="20.0.1" type="github">
  <diagram id="EQrerkP-yRgRwFNjOEDj" name="Page-1">
    <mxGraphModel dx="916" dy="772" grid="1" gridSize="10" guides="1" tooltips="1" connect="1" arrows="1" fold="1" page="1" pageScale="1" pageWidth="827" pageHeight="1169" math="0" shadow="0">
      <root>
        <mxCell id="0" />
        <mxCell id="1" parent="0" />
        <mxCell id="YQoHr03NwcJgg7saUyNb-3" value="写操作" style="edgeStyle=orthogonalEdgeStyle;rounded=0;orthogonalLoop=1;jettySize=auto;html=1;entryX=0.5;entryY=0;entryDx=0;entryDy=0;entryPerimeter=0;fontSize=16;" edge="1" parent="1" source="YQoHr03NwcJgg7saUyNb-1" target="YQoHr03NwcJgg7saUyNb-2">
          <mxGeometry relative="1" as="geometry" />
        </mxCell>
        <mxCell id="YQoHr03NwcJgg7saUyNb-8" value="读操作" style="rounded=0;orthogonalLoop=1;jettySize=auto;html=1;entryX=0.5;entryY=0;entryDx=0;entryDy=0;entryPerimeter=0;fontSize=16;exitX=0;exitY=0.5;exitDx=0;exitDy=0;edgeStyle=orthogonalEdgeStyle;" edge="1" parent="1" source="YQoHr03NwcJgg7saUyNb-1" target="YQoHr03NwcJgg7saUyNb-4">
          <mxGeometry relative="1" as="geometry" />
        </mxCell>
        <mxCell id="YQoHr03NwcJgg7saUyNb-9" value="读操作" style="edgeStyle=orthogonalEdgeStyle;rounded=0;orthogonalLoop=1;jettySize=auto;html=1;entryX=0.5;entryY=0;entryDx=0;entryDy=0;entryPerimeter=0;fontSize=16;" edge="1" parent="1" source="YQoHr03NwcJgg7saUyNb-1" target="YQoHr03NwcJgg7saUyNb-5">
          <mxGeometry relative="1" as="geometry">
            <Array as="points">
              <mxPoint x="440" y="390" />
            </Array>
          </mxGeometry>
        </mxCell>
        <mxCell id="YQoHr03NwcJgg7saUyNb-1" value="应用程序" style="rounded=0;whiteSpace=wrap;html=1;fontSize=16;fillColor=#cdeb8b;strokeColor=#36393d;" vertex="1" parent="1">
          <mxGeometry x="270" y="360" width="120" height="60" as="geometry" />
        </mxCell>
        <mxCell id="YQoHr03NwcJgg7saUyNb-6" value="同步/异步" style="rounded=0;orthogonalLoop=1;jettySize=auto;html=1;fontSize=16;exitX=0.5;exitY=1;exitDx=0;exitDy=0;exitPerimeter=0;entryX=0.5;entryY=0;entryDx=0;entryDy=0;entryPerimeter=0;" edge="1" parent="1" source="YQoHr03NwcJgg7saUyNb-2" target="YQoHr03NwcJgg7saUyNb-4">
          <mxGeometry relative="1" as="geometry" />
        </mxCell>
        <mxCell id="YQoHr03NwcJgg7saUyNb-7" value="&lt;meta charset=&quot;utf-8&quot;&gt;&lt;span style=&quot;color: rgb(0, 0, 0); font-family: Helvetica; font-size: 16px; font-style: normal; font-variant-ligatures: normal; font-variant-caps: normal; font-weight: 400; letter-spacing: normal; orphans: 2; text-align: center; text-indent: 0px; text-transform: none; widows: 2; word-spacing: 0px; -webkit-text-stroke-width: 0px; background-color: rgb(255, 255, 255); text-decoration-thickness: initial; text-decoration-style: initial; text-decoration-color: initial; float: none; display: inline !important;&quot;&gt;同步/异步&lt;/span&gt;" style="edgeStyle=none;rounded=0;orthogonalLoop=1;jettySize=auto;html=1;entryX=0.5;entryY=0;entryDx=0;entryDy=0;entryPerimeter=0;fontSize=16;exitX=0.5;exitY=1;exitDx=0;exitDy=0;exitPerimeter=0;" edge="1" parent="1" source="YQoHr03NwcJgg7saUyNb-2" target="YQoHr03NwcJgg7saUyNb-5">
          <mxGeometry relative="1" as="geometry" />
        </mxCell>
        <mxCell id="YQoHr03NwcJgg7saUyNb-2" value="主库" style="shape=cylinder3;whiteSpace=wrap;html=1;boundedLbl=1;backgroundOutline=1;size=15;fontSize=16;fillColor=#dae8fc;strokeColor=#6c8ebf;" vertex="1" parent="1">
          <mxGeometry x="280" y="510" width="100" height="85" as="geometry" />
        </mxCell>
        <mxCell id="YQoHr03NwcJgg7saUyNb-4" value="从库" style="shape=cylinder3;whiteSpace=wrap;html=1;boundedLbl=1;backgroundOutline=1;size=15;fontSize=16;fillColor=#ffcc99;strokeColor=#36393d;" vertex="1" parent="1">
          <mxGeometry x="160" y="650" width="100" height="85" as="geometry" />
        </mxCell>
        <mxCell id="YQoHr03NwcJgg7saUyNb-5" value="从库" style="shape=cylinder3;whiteSpace=wrap;html=1;boundedLbl=1;backgroundOutline=1;size=15;fontSize=16;fillColor=#ffcc99;strokeColor=#36393d;" vertex="1" parent="1">
          <mxGeometry x="390" y="650" width="100" height="85" as="geometry" />
        </mxCell>
      </root>
    </mxGraphModel>
  </diagram>
</mxfile>
